# xmcd
#
# Track frame offsets:
#	150
#	13858
#	27616
#	40914
#	54191
#	68962
#	81885
#	95179
#	108640
#	121129
#	133895
#	146045
#	157439
#	168388
#	181431
#	193824
#	206488
#	219125
#	231504
#	243215
#	255512
#	267143
#	278844
#	291642
#	304679
#
# Disc length: 4222 seconds
#
# Revision: 0
# Processed by: cddbd v1.5.1PL0 Copyright (c) Steve Scherf et al.
# Submitted via: dBpowerAMP V4.0
#
DISCID=86107c19
DTITLE=Memphis Minnie  - Me And My Chauffeur cd2 
DYEAR=2003
DGENRE=Blues
TTITLE0=New Orleans Stop Time
TTITLE1=I M A Bad Luck woman
TTITLE2=Caught Me Wrong Again
TTITLE3=Black Cat Bleus
TTITLE4=If You See My Rooster Please Run Him Home
TTITLE5=Blues Everywhere
TTITLE6=Please Don T Stop Him
TTITLE7=Stop Lying To Me
TTITLE8=Has Anyone Seen My Man
TTITLE9=I d Rather See Him Dead
TTITLE10=Poor And Wandering Woman Blues
TTITLE11=Bad Outside Friends
TTITLE12=Call The Fire Wagon
TTITLE13=Lonesome Shackk Blues
TTITLE14=Nothing Is Rambling
TTITLE15=Boy Freind Blues
TTITLE16=It S Hard To Please My Man
TTITLE17=Ma Raney
TTITLE18=In My Girlish Day
TTITLE19=Me And My Chaffeur Blues
TTITLE20=Down By The Riverside
TTITLE21=Pig Meat On The Line
TTITLE22=I Am Sailing
TTITLE23=Black Rat Swing
TTITLE24=Love Come And Go
EXTD=
EXTT0=
EXTT1=
EXTT2=
EXTT3=
EXTT4=
EXTT5=
EXTT6=
EXTT7=
EXTT8=
EXTT9=
EXTT10=
EXTT11=
EXTT12=
EXTT13=
EXTT14=
EXTT15=
EXTT16=
EXTT17=
EXTT18=
EXTT19=
EXTT20=
EXTT21=
EXTT22=
EXTT23=
EXTT24=
PLAYORDER=
